<svg width="375" height="812" viewBox="0 0 375 812" fill="none" xmlns="http://www.w3.org/2000/svg">
<rect width="379" height="813" fill="#DBF1F5"/>
<path d="M-43.1914 477.832C-52.7183 469.385 -52.7329 452.49 -43.2205 444.028C-33.7082 435.567 -16.9302 437.551 -9.65008 447.982C-10.4817 439.083 1.43796 432.05 8.82025 437.069C9.38924 432.459 14.3643 428.914 18.9016 429.847C14.408 428.914 24.0371 418.19 25.4815 417.286C30.6024 414.076 40.0126 414.455 45.1335 417.125C51.2028 420.291 55.2441 426.988 55.2149 433.83C59.6501 430.095 64.8586 427.046 70.5922 426.2C89.3544 423.428 101.464 446.348 92.4765 462.236C95.8467 456.284 103.842 453.439 110.217 455.919C116.593 458.414 120.547 465.913 118.986 472.58C119.569 461.565 136.975 456.605 143.263 465.665C139.922 461.069 140.184 454.197 143.875 449.879C147.552 445.56 154.307 444.203 159.369 446.771C156.641 437.011 163.775 425.689 173.769 423.924C183.749 422.173 194.326 430.373 195.099 440.483C199.403 432.255 212.417 432.546 219.041 439.053C225.664 445.575 227.269 455.598 227.43 464.877C229.72 457.028 242.223 456.678 247.198 463.155C252.188 469.633 250.977 479.072 247.373 486.411C252.305 474.9 271.329 473.66 277.72 484.427C273.474 478.591 274.918 469.429 280.754 465.183C286.59 460.938 295.752 462.397 299.998 468.232C297.342 460.383 307.205 452.972 315.331 454.591C323.443 456.225 329.264 463.199 334.181 469.866C332.839 461.915 346.378 459.172 351.338 465.519C356.313 471.865 354.825 480.94 353.074 488.818C360.077 488.702 363.375 500.081 357.407 503.729V545.776H-45.4236L-43.1768 477.789L-43.1914 477.832Z" fill="#93D4DF"/>
<path d="M-176.35 455.335C-173.184 446.786 -160.914 444.889 -153.094 449.587C-145.274 454.285 -141.087 463.155 -137.892 471.69C-133.515 465.227 -120.954 470.129 -122.121 477.847C-118.357 472.186 -107.648 474.725 -106.816 481.465C-107.502 474.739 -99.5509 468.801 -93.292 471.369C-96.8956 465.183 -87.5 456.896 -81.8101 461.229C-85.224 451.863 -73.5816 442.482 -63.8066 444.481C-54.0316 446.479 -47.2767 455.379 -42.7685 464.264C-40.9448 457.611 -30.951 456.196 -25.8301 460.806C-20.7092 465.431 -19.9943 473.382 -21.8034 480.05C-13.9251 474.973 -2.1805 485.813 -6.63029 494.07C-1.10088 489.022 7.93004 488.307 14.1889 492.422C11.4169 487.578 14.5391 480.444 19.981 479.218C25.4229 477.978 31.3316 483.055 30.9231 488.628C34.3662 484.966 40.4355 484.12 44.754 486.717C49.0579 489.314 51.1588 495.077 49.5101 499.833C55.1563 495.573 64.158 496.842 68.4035 502.488C72.6491 508.135 71.3798 517.136 65.7337 521.382C71.9196 515.838 81.9864 515.225 88.7997 519.981C95.613 524.737 98.5017 534.396 95.4233 542.114H-175.883L-176.35 455.306V455.335Z" fill="#B4E2EA"/>
<path d="M557.342 451.906C554.176 443.357 541.906 441.46 534.086 446.158C526.266 450.856 522.079 459.726 518.884 468.261C514.507 461.798 501.946 466.7 503.113 474.418C499.349 468.757 488.64 471.296 487.808 478.036C488.494 471.31 480.543 465.373 474.284 467.94C477.887 461.754 468.492 453.468 462.802 457.801C466.216 448.434 454.573 439.053 444.798 441.052C435.023 443.051 428.269 451.95 423.76 460.835C421.937 454.182 411.943 452.767 406.822 457.378C401.701 462.002 400.986 469.954 402.795 476.621C394.917 471.544 383.172 482.384 387.622 490.642C382.093 485.594 373.062 484.879 366.803 488.993C369.575 484.149 366.453 477.015 361.011 475.789C355.569 474.549 349.66 479.627 350.069 485.2C346.626 481.538 340.556 480.692 336.238 483.288C331.919 485.885 329.833 491.648 331.482 496.404C325.836 492.144 316.834 493.414 312.588 499.06C308.343 504.706 309.612 513.708 315.258 517.953C309.072 512.409 299.005 511.796 292.192 516.553C285.379 521.309 282.49 530.967 285.569 538.685H556.875L557.342 451.877V451.906Z" fill="#B4E2EA"/>
<path d="M554.584 566.609H-174.891V821.896H554.584V566.609Z" fill="#E3E7E9"/>
<path d="M554.584 552.983H-174.891V569.775H554.584V552.983Z" fill="#ADB8BE"/>
<path d="M554.584 536.117H-174.891V552.91H554.584V536.117Z" fill="#CAD1D5"/>
<rect x="-143" y="666" width="206" height="325" rx="8" stroke="white" stroke-width="4" stroke-linejoin="round"/>
<rect x="87" y="666" width="206" height="325" rx="8" stroke="white" stroke-width="4" stroke-linejoin="round"/>
<rect x="317" y="666" width="206" height="325" rx="8" stroke="white" stroke-width="4" stroke-linejoin="round"/>
<path d="M-61.9535 536.117C-61.9535 536.117 -63.1644 475.79 -20.8402 475.79C21.4839 475.79 22.6949 536.117 22.6949 536.117" stroke="#F1F3F4" stroke-width="2" stroke-miterlimit="10"/>
<path d="M-10.2777 536.117C-10.2777 536.117 -11.4886 475.79 30.8355 475.79C73.1597 475.79 74.3707 536.117 74.3707 536.117" stroke="#F1F3F4" stroke-width="2" stroke-miterlimit="10"/>
<path d="M41.3986 536.117C41.3986 536.117 40.1876 475.79 82.5118 475.79C124.836 475.79 126.047 536.117 126.047 536.117" stroke="#F1F3F4" stroke-width="2" stroke-miterlimit="10"/>
<path d="M93.089 536.117C93.089 536.117 91.8781 475.79 134.202 475.79C176.526 475.79 177.737 536.117 177.737 536.117" stroke="#F1F3F4" stroke-width="2" stroke-miterlimit="10"/>
<path d="M144.765 536.117C144.765 536.117 143.554 475.79 185.879 475.79C228.203 475.79 229.414 536.117 229.414 536.117" stroke="#F1F3F4" stroke-width="2" stroke-miterlimit="10"/>
<path d="M196.441 536.117C196.441 536.117 195.23 475.79 237.554 475.79C279.878 475.79 281.089 536.117 281.089 536.117" stroke="#F1F3F4" stroke-width="2" stroke-miterlimit="10"/>
<path d="M248.117 536.117C248.117 536.117 246.906 475.79 289.231 475.79C331.555 475.79 332.766 536.117 332.766 536.117" stroke="#F1F3F4" stroke-width="2" stroke-miterlimit="10"/>
<path d="M299.808 536.117C299.808 536.117 298.597 475.79 340.921 475.79C383.245 475.79 384.456 536.117 384.456 536.117" stroke="#F1F3F4" stroke-width="2" stroke-miterlimit="10"/>
<path d="M351.484 536.117C351.484 536.117 350.273 475.79 392.597 475.79C434.921 475.79 436.132 536.117 436.132 536.117" stroke="#F1F3F4" stroke-width="2" stroke-miterlimit="10"/>
<path d="M69.3341 252.38V251.38H65.6341V249.5H69.3341V248.06H71.7341V249.5H75.6341V251.38H71.7341V252.38H76.5141V254.3H64.5141V252.38H69.3341ZM67.9541 256.66V257.9H73.2741V256.66H67.9541ZM75.1741 259.72L76.7341 261.22C75.8941 261.86 74.8941 262.5 74.0341 263C74.8141 263.76 75.7941 264.36 76.9741 264.74C76.4941 265.18 75.8541 266.06 75.5541 266.68C72.8741 265.6 71.2741 263.52 70.3141 260.68C69.8941 261 69.4341 261.32 68.9541 261.62V264.14L71.3941 263.58C71.3741 264.14 71.4341 265.04 71.4941 265.52C67.7141 266.48 67.0141 266.66 66.5941 266.92C66.4941 266.38 66.1941 265.44 65.8941 264.94C66.2941 264.8 66.8541 264.52 66.8541 263.74V262.72C66.2541 263 65.6741 263.24 65.0941 263.44C64.8941 263.08 64.4741 262.36 64.1141 261.88C63.9741 263.52 63.6741 264.94 63.0741 265.72C62.7541 266.14 62.3141 266.42 61.7941 266.54C61.0141 266.74 60.1541 266.76 59.1741 266.72C59.1741 265.94 58.9741 265.1 58.5541 264.42C59.5541 264.5 60.2741 264.48 60.7141 264.44C60.9941 264.4 61.1941 264.3 61.3541 264.08C61.7741 263.56 61.9341 261.6 61.9541 259.3C61.1341 260.32 60.2541 261.24 59.4341 261.92C59.0541 261.34 58.4141 260.56 57.8541 260.14C59.2541 259.24 60.8341 257.56 61.7741 255.94C61.6941 255.3 61.5541 254.68 61.3541 254.06C60.7541 254.66 60.1341 255.2 59.4941 255.68C59.1341 255.22 58.3741 254.52 57.8741 254.14C58.7341 253.52 59.5741 252.76 60.3541 251.88C59.7941 251.02 59.0541 250.22 58.1141 249.4L59.7741 248.12C60.5741 248.76 61.2141 249.44 61.7541 250.12C62.1941 249.48 62.5941 248.84 62.9141 248.24L64.9941 249.28C64.4541 250.28 63.7741 251.26 63.0341 252.2C64.0341 254.32 64.2141 256.58 64.2141 258.94C64.2141 259.8 64.1941 260.64 64.1341 261.46C65.7141 261 67.3341 260.34 68.5541 259.52H65.7141V255.06H75.6141V259.52H71.9341C72.1741 260.26 72.4941 260.94 72.8741 261.56C73.6941 261 74.5941 260.28 75.1741 259.72ZM82.0541 253L84.3741 253.44C84.1741 254.18 83.9341 254.9 83.6541 255.6C84.3741 256.22 85.1341 256.88 85.5941 257.36L83.9941 259.02C83.6941 258.64 83.1941 258.14 82.6541 257.62C81.9941 258.7 81.2341 259.64 80.3541 260.36C79.9741 259.94 79.0341 259.16 78.5141 258.8C80.2741 257.54 81.4941 255.44 82.0541 253ZM96.3341 258.18L94.6741 259.84C94.1141 259.22 93.0941 258.34 92.0941 257.52C91.6941 258.18 91.2541 258.76 90.7541 259.24C90.4141 258.96 89.7541 258.52 89.1941 258.22C90.9741 260.58 93.8341 262.7 96.8341 263.8C96.2541 264.3 95.4741 265.32 95.0741 265.98C92.6541 264.86 90.3941 263.06 88.5941 260.92V266.74H86.0941V261.04C84.2941 263.14 82.0541 264.88 79.6741 265.98C79.2941 265.4 78.5141 264.44 77.9941 263.94C81.2341 262.68 84.3541 260.2 86.0941 257.5V252.88H78.8141V250.54H86.0941V248.08H88.5941V250.54H96.1341V252.88H88.5941V257.36C88.6941 257.52 88.7941 257.66 88.8941 257.82C90.1741 256.68 91.0141 254.9 91.4141 253L93.7341 253.42C93.5541 254.16 93.3341 254.88 93.0741 255.56C94.2141 256.44 95.5941 257.5 96.3341 258.18ZM116.574 258.22L114.734 258.98C114.314 257.9 113.374 256.34 112.334 254.92C113.094 253.7 113.894 252.18 114.334 251.2L116.294 251.64C115.734 252.76 115.034 253.92 114.434 254.9C115.294 256 116.174 257.34 116.574 258.22ZM110.954 251.2L112.874 251.62C112.374 252.72 111.754 253.9 111.174 254.88C111.994 256 112.794 257.3 113.174 258.16L111.354 258.92C110.954 257.86 110.114 256.32 109.114 254.9C109.834 253.68 110.574 252.18 110.954 251.2ZM116.474 248.86V250.86H106.434V248.86H116.474ZM109.894 258.24L108.054 258.98C107.694 257.9 106.894 256.34 106.014 254.92C106.674 253.7 107.374 252.18 107.754 251.2L109.674 251.62C109.174 252.72 108.574 253.92 108.034 254.9C108.794 256.04 109.534 257.38 109.894 258.24ZM100.294 257.48V258.66H101.354V257.48H100.294ZM100.294 254.74V255.92H101.354V254.74H100.294ZM103.994 255.92V254.74H102.874V255.92H103.994ZM103.994 258.66V257.48H102.874V258.66H103.994ZM106.154 263.58H103.094V266.74H101.134V263.58H98.0341V261.5H101.134V260.3H98.6341V253.08H101.114V252.04H98.3141V249.98H101.114V248.08H103.074V249.98H105.934V252.04H103.074V253.08H105.714V260.3H103.094V261.5H106.154V263.58ZM112.594 264.24H116.774V266.24H105.994V264.24H110.234V261.26H106.894V259.26H116.174V261.26H112.594V264.24ZM134.454 253.38L136.374 254.06C134.834 255.66 132.214 256.58 129.294 257.14C129.054 256.64 128.594 255.98 128.154 255.58C130.674 255.24 133.194 254.5 134.454 253.38ZM128.274 257.4L130.254 257.9C129.534 259.7 128.354 261.46 127.054 262.54C126.734 262.18 125.974 261.52 125.514 261.2C126.714 260.28 127.734 258.86 128.274 257.4ZM133.994 250.8L135.834 251.56C134.354 252.8 132.034 253.68 129.834 254.24C129.534 253.8 129.034 253.18 128.574 252.8C130.534 252.44 132.834 251.7 133.994 250.8ZM133.454 248.24L135.274 249.1C133.754 250.16 131.514 251.04 129.714 251.58C129.374 251.16 128.854 250.6 128.354 250.24C130.014 249.8 132.294 249.02 133.454 248.24ZM125.114 255.7L124.754 255.3L125.394 255.02H122.534C122.194 255.32 121.854 255.62 121.474 255.9L125.114 255.7ZM128.314 256.88L126.754 257.6C126.594 257.38 126.374 257.1 126.114 256.8C120.654 257.18 119.914 257.2 119.374 257.4C119.274 257.1 119.054 256.4 118.894 256.02C119.134 256 119.354 255.86 119.634 255.68C119.794 255.58 120.114 255.34 120.474 255.02H118.454V253.7H120.014V248.56H127.794V249.88H122.154V250.42H127.174V251.5H122.154V252.06H127.174V253.12H122.154V253.7H128.254V255.02H126.614C127.214 255.64 127.934 256.36 128.314 256.88ZM123.614 260.64V260.98C124.274 261.44 125.734 262.56 126.094 262.9L124.834 264.44C124.574 264.08 124.114 263.54 123.614 263V266.68H121.494V263.16C120.834 264.1 120.114 264.94 119.394 265.52C119.054 265.04 118.434 264.3 117.974 263.92C119.114 263.22 120.374 261.94 121.194 260.64H118.534V258.84H121.494V257.42H123.614V258.84H126.054V260.64H123.614ZM131.974 262.82L133.714 262.1C134.554 263.32 135.674 264.94 136.254 265.92L134.394 266.76C134.254 266.46 134.054 266.12 133.834 265.74C128.574 266.16 127.694 266.26 127.114 266.48C127.014 266.1 126.674 265.14 126.414 264.62C126.814 264.54 127.154 264.22 127.594 263.76C128.014 263.32 129.394 261.56 130.194 259.82L132.194 260.82C131.494 261.96 130.594 263.14 129.654 264.16L132.734 263.98C132.474 263.58 132.214 263.18 131.974 262.82ZM130.454 257.08H133.514C134.174 258.56 135.514 260 136.914 260.78C136.494 261.18 135.814 261.98 135.494 262.52C134.214 261.62 132.974 260.28 132.194 258.88H130.454V257.08ZM155.354 251.14L153.434 252.48C152.914 251.66 151.734 250.36 150.874 249.44L152.674 248.26C153.534 249.12 154.774 250.36 155.354 251.14ZM145.114 256.48L145.394 258.66C144.614 258.88 143.854 259.08 143.054 259.3V264.06C143.054 265.22 142.834 265.8 142.154 266.14C141.494 266.52 140.534 266.58 139.134 266.58C139.054 265.96 138.754 265.02 138.454 264.42C139.254 264.44 140.074 264.44 140.334 264.44C140.614 264.44 140.714 264.34 140.714 264.06V259.92L138.594 260.44L137.974 258.18C138.754 258.02 139.714 257.8 140.714 257.56V254.06H138.234V251.86H140.714V248.08H143.054V251.86H145.194V254.06H143.054V256.98L145.114 256.48ZM153.714 255.3L155.674 256.48C154.834 258.36 153.574 260.2 152.074 261.82C152.614 262.94 153.274 263.6 154.054 263.72C154.514 263.76 154.774 262.8 154.914 260.66C155.374 261.18 156.434 261.82 156.894 262.04C156.374 265.74 155.294 266.68 154.174 266.58C152.434 266.4 151.154 265.38 150.194 263.62C149.034 264.62 147.754 265.48 146.454 266.08C146.014 265.48 145.214 264.72 144.534 264.24C146.254 263.56 147.834 262.56 149.254 261.32C148.754 259.68 148.394 257.68 148.134 255.38L145.654 255.64L145.414 253.36L147.934 253.12C147.814 251.58 147.734 249.92 147.674 248.16H150.114C150.134 249.82 150.214 251.4 150.314 252.9L156.314 252.32L156.534 254.54L150.514 255.14C150.694 256.7 150.934 258.1 151.234 259.3C152.254 258.06 153.114 256.68 153.714 255.3ZM165.734 261.78L165.094 260.18C166.654 259.68 167.554 258.82 167.674 257.76C167.614 257.78 167.534 257.78 167.454 257.78C166.454 257.78 165.554 257.14 165.554 256C165.554 254.88 166.454 254.2 167.514 254.2C168.934 254.2 169.674 255.26 169.674 256.94C169.674 259.2 168.214 261.06 165.734 261.78ZM188.974 259.32H193.934C193.014 258.78 192.194 258.18 191.434 257.5C190.674 258.2 189.854 258.78 188.974 259.32ZM189.514 263.98H193.274V261.32H189.514V263.98ZM186.114 257.76V258.38C187.494 257.78 188.814 256.92 189.934 255.88C189.454 255.3 189.054 254.7 188.694 254.12C188.314 254.62 187.914 255.08 187.514 255.5C187.174 255.14 186.454 254.5 185.914 254.14V255.42H183.914V257.76H186.114ZM181.074 250.84L181.094 253.38H183.734V250.84H181.074ZM192.794 251.98H190.034L189.874 252.28C190.274 252.96 190.774 253.66 191.334 254.34C191.914 253.6 192.394 252.82 192.794 251.98ZM194.214 249.88L195.714 250.52C195.094 252.62 194.154 254.4 192.934 255.9C194.094 256.82 195.474 257.62 197.074 258.12C196.594 258.58 195.914 259.5 195.594 260.12L195.554 260.1V266.64H193.274V266.02H189.514V266.7H187.314V260.2L186.854 260.4C186.694 260.08 186.414 259.64 186.114 259.26V259.84H183.914V262.5L186.274 261.96L186.494 264.06C183.694 264.76 180.654 265.46 178.394 265.98L177.974 263.7L178.874 263.54V256.82H180.814V263.14L181.814 262.94V255.42H179.014V248.8H185.914V253.76C187.374 252.36 188.574 250.24 189.234 248.06L191.494 248.62C191.334 249.06 191.174 249.52 190.994 249.96H193.794L194.214 249.88ZM206.994 253.16V253.78H212.714V253.16H206.994ZM206.994 251.66V252.24H212.714V251.66H206.994ZM206.994 250.14V250.72H212.714V250.14H206.994ZM205.554 256.46V257.36H203.494V255.32H208.754C208.694 255.12 208.634 254.9 208.554 254.74H204.794V249.18H208.074C208.274 248.78 208.474 248.36 208.574 248.06L211.034 248.22C210.794 248.58 210.554 248.9 210.314 249.18H215.014V254.74H210.974C211.074 254.94 211.154 255.14 211.234 255.32H216.314V257.24H214.174V256.46H212.814V257.14C212.814 257.44 212.834 257.62 213.274 257.62H214.454C214.814 257.62 215.634 257.58 215.894 257.48C215.934 257.96 215.934 258.14 216.034 258.62C215.734 258.7 215.074 258.72 214.554 258.72H212.334C211.054 258.72 210.894 258.04 210.894 257.12V256.46H209.614C208.994 257.92 207.714 258.58 204.674 258.98C204.514 258.6 204.134 258.12 203.794 257.82C206.034 257.6 206.994 257.2 207.454 256.46H205.554ZM202.714 251.46L200.674 252.18C200.414 251.26 199.794 249.82 199.394 248.72L201.374 248.16C201.794 249.22 202.394 250.58 202.714 251.46ZM212.234 262.12H208.454C207.874 263.06 206.834 263.72 205.074 264.22C206.154 264.46 207.454 264.5 208.894 264.5C211.254 264.5 214.794 264.3 217.014 264C216.754 264.58 216.394 265.66 216.354 266.28C214.694 266.36 211.094 266.5 208.794 266.5C206.134 266.5 204.454 266.28 203.014 265.46C202.174 264.98 201.494 264.34 201.074 264.34C200.614 264.34 199.934 265.64 199.394 266.8L197.934 264.72C198.514 263.98 199.154 263.36 199.734 262.96C200.214 261.88 200.654 260.5 200.954 259.18H198.534C199.034 258 199.634 256.38 200.114 254.82H198.214V252.74H203.094C202.634 254.14 202.094 255.76 201.614 257.14H202.114L202.434 257.08L203.414 257.4C203.074 259.24 202.554 261.12 201.894 262.64C202.254 262.86 202.674 263.2 203.314 263.54C203.714 263.78 204.114 263.96 204.594 264.1C204.374 263.64 203.954 263.1 203.654 262.8C205.994 262.32 206.814 261.56 207.174 260.4H203.594V259.1H208.794C208.674 258.82 208.554 258.54 208.434 258.28L210.374 257.86C210.574 258.2 210.814 258.68 211.014 259.1H216.234V260.4H209.154C209.114 260.56 209.074 260.72 209.034 260.88H214.474C214.474 260.88 214.454 261.32 214.394 261.52C214.214 262.7 213.974 263.34 213.554 263.64C213.194 263.94 212.754 264.02 212.254 264.04C211.814 264.08 210.934 264.08 210.074 264C210.054 263.64 209.874 263.08 209.674 262.72C210.394 262.8 211.074 262.8 211.374 262.8C211.654 262.8 211.794 262.78 211.934 262.66C212.054 262.56 212.154 262.4 212.234 262.12ZM223.994 251.54V249.68C223.514 250.86 222.974 252.08 222.374 253.22V266.72H220.214V256.7C219.854 257.2 219.474 257.66 219.114 258.08C218.914 257.5 218.294 256.18 217.894 255.62C219.594 253.8 221.214 250.96 222.154 248.14L224.314 248.82C224.214 249.08 224.134 249.32 224.034 249.58H229.054C228.894 249.2 228.714 248.82 228.534 248.5L230.734 247.9C231.034 248.42 231.354 249.04 231.574 249.58H236.494V251.54H223.994ZM227.354 253.88V254.96H232.854V253.88H227.354ZM235.134 256.54H225.214V252.3H235.134V256.54ZM236.674 257.34V260.96H234.554V262.1H231.414V264.4C231.414 265.48 231.194 266.04 230.354 266.36C229.534 266.66 228.394 266.66 226.914 266.66C226.794 266.02 226.494 265.2 226.214 264.58C227.154 264.62 228.314 264.62 228.614 264.62C228.914 264.62 229.014 264.56 229.014 264.32V262.1H225.594V260.24H234.534V259.2H225.574V260.96H223.534V257.34H236.674ZM242.634 258.94H246.114V257.72H242.634V258.94ZM242.634 254.72V255.94H246.114V254.72H242.634ZM252.054 254.72H248.554V255.94H252.054V254.72ZM252.054 258.94V257.72H248.554V258.94H252.054ZM256.534 261.92V264.06H248.554V266.76H246.114V264.06H238.374V261.92H246.114V260.84H240.354V252.82H246.114V251.86H238.854V249.7H246.114V248.08H248.554V249.7H255.954V251.86H248.554V252.82H254.454V260.84H248.554V261.92H256.534ZM268.714 255.76L270.194 254.52C272.334 256.06 275.414 258.36 276.854 259.94L274.834 261.76C273.594 260.28 270.874 258 268.714 256.34V266.7H266.114V256.94C264.294 258.88 262.154 260.62 259.754 261.86C259.374 261.22 258.634 260.24 258.114 259.7C261.754 258 264.874 254.9 266.734 251.84H258.754V249.4H276.094V251.84H269.874C269.534 252.46 269.134 253.08 268.714 253.68V255.76ZM284.194 250.9L286.294 251.64C285.674 253.18 285.114 255.06 284.594 256.22L283.154 255.62C283.554 254.34 283.974 252.34 284.194 250.9ZM286.234 262.94L284.674 264.64C284.174 263.82 283.274 262.6 282.454 261.58C281.974 263.48 281.114 265.26 279.634 266.8C279.294 266.28 278.534 265.44 278.034 265.08C280.154 262.82 280.754 259.88 280.894 257L279.074 257.78C278.914 256.3 278.434 253.86 277.994 251.98L279.734 251.36C280.194 253.08 280.674 255.26 280.914 256.66C280.934 256.14 280.934 255.64 280.934 255.12V248.3H283.094V255.14C283.094 256.46 283.054 257.84 282.894 259.18C283.774 260.02 285.714 262.36 286.234 262.94ZM288.714 259.76V261.04H293.554V259.76H288.714ZM288.714 256.84V258.14H293.554V256.84H288.714ZM288.714 253.96V255.24H293.554V253.96H288.714ZM295.894 262.76H288.674L290.574 264.06C289.454 265.1 287.634 266.2 286.114 266.82C285.774 266.34 285.134 265.64 284.654 265.2C286.074 264.64 287.754 263.62 288.634 262.76H286.494V252.24H289.634C289.714 251.78 289.794 251.32 289.874 250.86H285.794V248.86H296.554V250.86H292.554C292.394 251.34 292.234 251.8 292.074 252.24H295.894V262.76ZM291.414 264.12L293.194 262.9C294.394 263.6 296.074 264.66 296.954 265.42L295.074 266.76C294.294 266.02 292.654 264.88 291.414 264.12ZM316.714 255.48L314.694 256.24C314.134 255.14 312.954 253.52 311.654 252.08C312.574 250.8 313.554 249.28 314.094 248.24L316.194 248.76C315.534 250.02 314.734 251.04 314.014 252.06C315.054 253.18 316.154 254.52 316.714 255.48ZM308.774 255.44L306.774 256.16C306.334 255.06 305.394 253.5 304.334 252.08C305.094 250.82 305.874 249.34 306.254 248.32L308.334 248.78C307.794 250.04 307.174 251.06 306.574 252.08C307.454 253.18 308.314 254.52 308.774 255.44ZM299.534 257.7L298.154 257.22C298.574 255.84 298.874 253.6 298.994 252L300.314 252.16C300.234 253.8 299.954 256.14 299.534 257.7ZM302.414 251.82L303.614 251.46C304.034 252.76 304.454 254.44 304.614 255.44L303.154 255.96C303.014 255.08 302.734 253.68 302.414 252.46V266.74H300.474V248.06H302.414V251.82ZM313.394 262.44L312.234 263.74C311.814 263.34 311.234 262.88 310.554 262.44C309.934 262.98 309.274 263.48 308.634 263.9C308.314 263.58 307.614 263.02 307.194 262.76C307.854 262.42 308.494 261.96 309.094 261.48C308.514 261.12 307.954 260.78 307.414 260.5L308.514 259.36C309.094 259.64 309.714 259.98 310.334 260.32C310.734 259.92 311.114 259.46 311.414 259L313.134 259.54C312.754 260.12 312.294 260.68 311.794 261.24C312.434 261.66 312.994 262.08 313.394 262.44ZM313.754 264V258.92H307.034V264H313.754ZM311.394 255.72L311.814 255.76C311.614 256.2 311.434 256.64 311.234 257.04H316.034V266.66H313.754V265.9H307.034V266.76H304.854V257.04H308.894C309.094 256.5 309.274 255.94 309.374 255.5L310.494 255.62C309.954 254.58 309.034 253.2 308.014 251.96C308.794 250.72 309.634 249.26 310.074 248.26L312.174 248.72C311.574 249.96 310.894 250.96 310.274 251.94C311.214 253.02 312.174 254.32 312.654 255.24L311.394 255.72Z" fill="#356C77"/>
<path d="M142.056 728.36H148.704V731H142.056V728.36ZM144.168 722.96H146.832V739.04H144.168V722.96ZM141.672 739.4C143.448 738.872 146.112 737.912 148.68 736.976L149.208 739.544C146.952 740.504 144.552 741.464 142.56 742.256L141.672 739.4ZM150.6 725.96H164.016V728.576H150.6V725.96ZM151.032 731.168H154.992V733.496H151.032V731.168ZM149.424 725.96H152.064V733.976C152.064 737.504 151.656 742.328 148.968 745.256C148.56 744.752 147.48 743.816 146.88 743.48C149.208 740.864 149.424 737.024 149.424 733.952V725.96ZM153.96 731.168H156.336C156.336 731.168 156.336 731.816 156.312 732.104C156.24 737.504 156.144 739.64 155.664 740.336C155.28 740.84 154.896 741.056 154.32 741.152C153.84 741.248 153.072 741.272 152.28 741.248C152.208 740.528 151.992 739.52 151.656 738.896C152.256 738.968 152.736 738.968 153 738.968C153.264 738.968 153.432 738.896 153.6 738.68C153.84 738.296 153.912 736.592 153.96 731.576V731.168ZM156.648 722.6H159.36C159.168 732.344 160.44 742.208 161.928 742.208C162.264 742.208 162.48 741.08 162.552 738.608C163.08 739.232 163.92 739.832 164.568 740.12C164.208 743.864 163.464 744.896 161.568 744.896C157.536 744.896 156.72 733.328 156.648 722.6ZM159.384 723.656L161.352 722.504C162.24 723.344 163.272 724.52 163.704 725.336L161.592 726.584C161.208 725.792 160.248 724.544 159.384 723.656ZM161.352 730.952L163.944 731.432C162.48 737.648 159.672 742.352 155.4 745.208C154.992 744.704 153.984 743.696 153.408 743.264C157.608 740.816 160.152 736.544 161.352 730.952ZM184.968 722.528H188.064V727.4H184.968V722.528ZM185.016 728.288H188.016V745.208H185.016V728.288ZM175.608 725.672H197.64V728.48H175.608V725.672ZM177.888 731H193.704V733.808H180.792V742.28H177.888V731ZM192.624 731H195.624V739.136C195.624 740.528 195.336 741.344 194.328 741.8C193.32 742.232 191.928 742.28 190.056 742.28C189.936 741.44 189.504 740.216 189.096 739.448C190.296 739.496 191.736 739.496 192.096 739.496C192.504 739.496 192.624 739.4 192.624 739.088V731ZM214.776 731.984V740.816H212.04V734.648H208.968V731.984H214.776ZM214.776 739.688C215.736 741.296 217.392 741.968 219.864 742.064C222.72 742.208 228.432 742.136 231.744 741.872C231.432 742.52 231 743.84 230.856 744.68C227.88 744.824 222.768 744.872 219.816 744.728C216.936 744.608 215.016 743.912 213.576 742.064C212.472 743 211.344 743.936 209.976 744.944L208.656 742.088C209.784 741.44 211.128 740.576 212.28 739.688H214.776ZM209.304 724.976L211.296 723.128C212.784 724.136 214.656 725.696 215.52 726.848L213.36 728.912C212.592 727.76 210.792 726.08 209.304 724.976ZM219.024 727.28L220.848 725.744C222.984 726.488 226.008 727.784 227.64 728.72L225.672 730.424C224.208 729.512 221.232 728.144 219.024 727.28ZM216.84 728.648H229.056V730.736H219.552V741.08H216.84V728.648ZM227.712 728.648H230.448V738.584C230.448 739.76 230.256 740.36 229.464 740.744C228.72 741.152 227.664 741.152 226.224 741.152C226.128 740.456 225.816 739.52 225.504 738.896C226.272 738.92 227.112 738.92 227.352 738.92C227.64 738.92 227.712 738.824 227.712 738.56V728.648ZM217.056 723.416H228.504V725.6H217.056V723.416ZM218.352 732.032H228.648V734.024H218.352V732.032ZM218.352 735.392H228.648V737.48H218.352V735.392ZM222.312 729.632H224.88V740.984H222.312V729.632ZM227.472 723.416H228.12L228.696 723.272L230.4 724.664C228.696 726.248 226.32 727.952 224.112 729.008C223.776 728.528 223.08 727.784 222.672 727.4C224.472 726.536 226.56 725.024 227.472 723.92V723.416Z" fill="#475259"/>
<path d="M141.568 756.745V754.717H151.125V756.745H147.562V766.353H145.131V756.745H141.568ZM162.861 760.535C162.861 761.804 162.62 762.883 162.139 763.773C161.662 764.664 161.01 765.344 160.185 765.813C159.363 766.279 158.438 766.512 157.412 766.512C156.378 766.512 155.45 766.277 154.628 765.808C153.806 765.338 153.156 764.658 152.679 763.768C152.202 762.878 151.963 761.8 151.963 760.535C151.963 759.266 152.202 758.186 152.679 757.296C153.156 756.406 153.806 755.728 154.628 755.262C155.45 754.792 156.378 754.558 157.412 754.558C158.438 754.558 159.363 754.792 160.185 755.262C161.01 755.728 161.662 756.406 162.139 757.296C162.62 758.186 162.861 759.266 162.861 760.535ZM160.366 760.535C160.366 759.713 160.243 759.02 159.997 758.455C159.755 757.891 159.412 757.463 158.969 757.171C158.526 756.88 158.007 756.734 157.412 756.734C156.817 756.734 156.298 756.88 155.855 757.171C155.412 757.463 155.067 757.891 154.821 758.455C154.579 759.02 154.457 759.713 154.457 760.535C154.457 761.357 154.579 762.05 154.821 762.614C155.067 763.179 155.412 763.607 155.855 763.898C156.298 764.19 156.817 764.336 157.412 764.336C158.007 764.336 158.526 764.19 158.969 763.898C159.412 763.607 159.755 763.179 159.997 762.614C160.243 762.05 160.366 761.357 160.366 760.535ZM166.865 766.353L163.536 754.717H166.223L168.149 762.802H168.246L170.371 754.717H172.672L174.791 762.819H174.893L176.82 754.717H179.507L176.178 766.353H173.78L171.564 758.745H171.473L169.263 766.353H166.865ZM190.557 754.717V766.353H188.432L183.369 759.029H183.284V766.353H180.824V754.717H182.983L188.006 762.035H188.108V754.717H190.557Z" fill="#5AB4C5"/>
<path d="M196.278 766.177V754.54H200.426C201.331 754.54 202.081 754.705 202.676 755.034C203.271 755.364 203.716 755.815 204.011 756.387C204.307 756.955 204.455 757.595 204.455 758.307C204.455 759.023 204.305 759.667 204.006 760.239C203.71 760.807 203.263 761.258 202.665 761.591C202.07 761.921 201.322 762.086 200.42 762.086H197.568V760.597H200.261C200.833 760.597 201.297 760.498 201.653 760.302C202.009 760.101 202.271 759.828 202.438 759.483C202.604 759.139 202.688 758.747 202.688 758.307C202.688 757.868 202.604 757.478 202.438 757.137C202.271 756.796 202.008 756.529 201.648 756.336C201.292 756.142 200.822 756.046 200.239 756.046H198.034V766.177H196.278ZM206.261 766.177H204.398L208.585 754.54H210.614L214.801 766.177H212.938L209.648 756.654H209.557L206.261 766.177ZM206.574 761.62H212.619V763.097H206.574V761.62ZM222.734 757.597C222.674 757.059 222.424 756.642 221.984 756.347C221.545 756.048 220.992 755.898 220.325 755.898C219.848 755.898 219.435 755.974 219.087 756.125C218.738 756.273 218.467 756.478 218.274 756.739C218.085 756.997 217.99 757.29 217.99 757.62C217.99 757.896 218.054 758.135 218.183 758.336C218.316 758.536 218.488 758.705 218.7 758.841C218.916 758.974 219.147 759.086 219.393 759.177C219.64 759.264 219.876 759.336 220.104 759.392L221.24 759.688C221.611 759.779 221.992 759.902 222.382 760.057C222.772 760.212 223.134 760.417 223.467 760.671C223.801 760.925 224.07 761.239 224.274 761.614C224.482 761.989 224.587 762.438 224.587 762.961C224.587 763.62 224.416 764.205 224.075 764.716C223.738 765.228 223.248 765.631 222.604 765.927C221.964 766.222 221.189 766.37 220.28 766.37C219.409 766.37 218.655 766.231 218.018 765.955C217.382 765.678 216.884 765.286 216.524 764.779C216.164 764.267 215.965 763.661 215.928 762.961H217.689C217.723 763.381 217.859 763.731 218.098 764.012C218.34 764.288 218.649 764.495 219.024 764.631C219.403 764.764 219.818 764.83 220.268 764.83C220.765 764.83 221.206 764.752 221.592 764.597C221.982 764.438 222.289 764.218 222.513 763.938C222.736 763.654 222.848 763.322 222.848 762.944C222.848 762.599 222.75 762.317 222.553 762.097C222.359 761.877 222.096 761.695 221.763 761.552C221.433 761.408 221.06 761.281 220.643 761.171L219.268 760.796C218.337 760.542 217.598 760.169 217.053 759.677C216.511 759.184 216.24 758.533 216.24 757.722C216.24 757.052 216.422 756.466 216.786 755.966C217.149 755.466 217.642 755.078 218.263 754.802C218.884 754.521 219.585 754.381 220.365 754.381C221.153 754.381 221.848 754.519 222.45 754.796C223.056 755.072 223.534 755.453 223.882 755.938C224.231 756.419 224.412 756.972 224.428 757.597H222.734ZM233.031 757.597C232.971 757.059 232.721 756.642 232.281 756.347C231.842 756.048 231.289 755.898 230.622 755.898C230.145 755.898 229.732 755.974 229.384 756.125C229.035 756.273 228.764 756.478 228.571 756.739C228.382 756.997 228.287 757.29 228.287 757.62C228.287 757.896 228.351 758.135 228.48 758.336C228.613 758.536 228.785 758.705 228.997 758.841C229.213 758.974 229.444 759.086 229.69 759.177C229.937 759.264 230.173 759.336 230.401 759.392L231.537 759.688C231.908 759.779 232.289 759.902 232.679 760.057C233.069 760.212 233.431 760.417 233.764 760.671C234.098 760.925 234.366 761.239 234.571 761.614C234.779 761.989 234.884 762.438 234.884 762.961C234.884 763.62 234.713 764.205 234.372 764.716C234.035 765.228 233.545 765.631 232.901 765.927C232.26 766.222 231.486 766.37 230.577 766.37C229.705 766.37 228.952 766.231 228.315 765.955C227.679 765.678 227.181 765.286 226.821 764.779C226.461 764.267 226.262 763.661 226.224 762.961H227.986C228.02 763.381 228.156 763.731 228.395 764.012C228.637 764.288 228.946 764.495 229.321 764.631C229.7 764.764 230.115 764.83 230.565 764.83C231.062 764.83 231.503 764.752 231.889 764.597C232.279 764.438 232.586 764.218 232.81 763.938C233.033 763.654 233.145 763.322 233.145 762.944C233.145 762.599 233.046 762.317 232.849 762.097C232.656 761.877 232.393 761.695 232.06 761.552C231.73 761.408 231.357 761.281 230.94 761.171L229.565 760.796C228.634 760.542 227.895 760.169 227.349 759.677C226.808 759.184 226.537 758.533 226.537 757.722C226.537 757.052 226.719 756.466 227.082 755.966C227.446 755.466 227.938 755.078 228.56 754.802C229.181 754.521 229.882 754.381 230.662 754.381C231.45 754.381 232.145 754.519 232.747 754.796C233.353 755.072 233.83 755.453 234.179 755.938C234.527 756.419 234.709 756.972 234.724 757.597H233.031Z" fill="#475259"/>
</svg>
